# xmcd
#
# Track frame offsets:
#	150
#	9006
#	16324
#	26276
#	35041
#	46001
#	53207
#	63489
#	75285
#	85449
#	93350
#	103656
#	111512
#	118453
#	123474
#	134128
#	142827
#	158929
#	171564
#	179958
#	194692
#	208932
#	220481
#	228371
#	237596
#
# Disc length: 3338 seconds
#
# Revision: 1
# Processed by: cddbd v1.5.2PL0 Copyright (c) Steve Scherf et al.
# Submitted via: audiograbber 1.83.01
#
DISCID=750d0819
DTITLE=Various Artist - Heut ist ein wunderschöner TAg 
DYEAR=2016
DGENRE=Volksmusik
TTITLE0=Heut ist ein wunderschöner Tag
TTITLE1=Im Frühtau zu Berge
TTITLE2=Es zogen auf sonnigen Wegen
TTITLE3=Auf der Lüneburger Heide
TTITLE4=Hoch auf dem gelben Wagen
TTITLE5=Oh, welche frohe Lust zu Wandern
TTITLE6=Heute wollen wir das Ränzlein schnüren
TTITLE7=Am frühen Morgen
TTITLE8=Es wollt ein Mädchen früh aufstehn
TTITLE9=Horch, was kommt von draußen rein
TTITLE10=Berggipfel erglühen
TTITLE11=Wohlan, die Zeit ist gekommen
TTITLE12=Ws war einmal ne Müllerin
TTITLE13=Im Krug zum grünen Kranze
TTITLE14=Glück auf, der Steiger kommt
TTITLE15=Der Schwamme-Marsch
TTITLE16=Deitsch und frei wolln mer sein
TTITLE17=Ein Jäger aus Kurpfalz
TTITLE18=Lausitzland, unser Land
TTITLE19=Märkische Heide, märkischer SAnd
TTITLE20=Mecklenburglied
TTITLE21=Es blies ein Jäger wohl in sein Horn
TTITLE22=Wohlauf nun in die schöne Welt
TTITLE23=Unser Ränzel auf dem Rücken
TTITLE24=Zug der Wandervögel
EXTD=
EXTT0=
EXTT1=
EXTT2=
EXTT3=
EXTT4=
EXTT5=
EXTT6=
EXTT7=
EXTT8=
EXTT9=
EXTT10=
EXTT11=
EXTT12=
EXTT13=
EXTT14=
EXTT15=
EXTT16=
EXTT17=
EXTT18=
EXTT19=
EXTT20=
EXTT21=
EXTT22=
EXTT23=
EXTT24=
PLAYORDER=
